<?xml version="1.0" encoding="utf-8"?>
<!-- Generator: Adobe Illustrator 16.0.4, SVG Export Plug-In . SVG Version: 6.00 Build 0)  -->
<!DOCTYPE svg PUBLIC "-//W3C//DTD SVG 1.1//EN" "http://www.w3.org/Graphics/SVG/1.1/DTD/svg11.dtd">
<svg version="1.1" id="Layer_1" xmlns="http://www.w3.org/2000/svg" xmlns:xlink="http://www.w3.org/1999/xlink" x="0px" y="0px"
	 width="32px" height="32px" viewBox="0 0 32 32" enable-background="new 0 0 32 32" xml:space="preserve">
<g>
	<linearGradient id="SVGID_1_" gradientUnits="userSpaceOnUse" x1="2.4209" y1="16.0869" x2="28.4033" y2="16.0869">
		<stop  offset="0" style="stop-color:#538132"/>
		<stop  offset="0.0198" style="stop-color:#538132"/>
		<stop  offset="1" style="stop-color:#74A029"/>
	</linearGradient>
	<path fill="url(#SVGID_1_)" d="M27.73,29.373c-7.76,0-15.527,0-23.294,0c-0.183-0.14-0.413-0.248-0.533-0.44
		c-0.106-0.166-0.119-0.424-0.119-0.641C3.776,24.497,3.777,20.7,3.777,16.906c0-0.071,0.017-0.146-0.003-0.208
		c-0.03-0.086-0.069-0.202-0.136-0.237c-0.571-0.324-0.923-0.851-1.117-1.474c-0.246-0.784-0.031-1.646,0.559-2.27
		c0.13-0.137,0.223-0.264,0.127-0.485c-0.149-0.353-0.268-0.713-0.386-1.077c-0.219-0.678-0.031-1.071,0.604-1.289
		C3.959,9.685,4.5,9.513,5.037,9.34c1.824-0.592,3.647-1.181,5.473-1.776c1.242-0.404,2.483-0.815,3.723-1.219
		c1.642-0.532,3.283-1.062,4.922-1.594c0.941-0.305,1.889-0.607,2.826-0.915c1.055-0.345,2.101-0.69,3.149-1.036
		c0.11,0,0.223,0,0.334,0c0.314,0.103,0.562,0.299,0.678,0.631c0.262,0.748,0.506,1.504,0.759,2.257
		c0.082,0.244,0.175,0.482,0.27,0.746C20.515,8.6,13.881,10.761,7.26,12.913c0.104,0.289,0.242,0.536,0.283,0.801
		c0.043,0.289,0.162,0.326,0.397,0.326c6.703-0.006,13.407-0.003,20.107-0.003c0.111,0,0.22,0,0.349,0c0,0.155,0,0.266,0,0.376
		c0,4.601-0.002,9.205,0.007,13.803C28.403,28.779,28.271,29.198,27.73,29.373z M19.418,22.376
		c-1.598-0.973-3.137-1.918-4.695-2.872c0,1.944,0,3.822,0,5.742C16.283,24.294,17.818,23.354,19.418,22.376z M19.716,7.862
		c0.865-0.28,1.689-0.548,2.511-0.818c0.057-0.019,0.114-0.079,0.135-0.133c0.075-0.208,0.142-0.414,0.191-0.627
		c0.143-0.583,0.274-1.172,0.411-1.759c-0.007,0-0.034-0.009-0.054-0.001c-0.827,0.271-1.653,0.544-2.477,0.821
		c-0.048,0.015-0.112,0.075-0.123,0.125C20.111,6.247,19.923,7.023,19.716,7.862z M6.662,12.113
		c0.866-0.283,1.653-0.546,2.446-0.797c0.149-0.048,0.226-0.108,0.26-0.277c0.09-0.435,0.199-0.871,0.31-1.301
		c0.081-0.319,0.178-0.629,0.281-0.994C9.272,8.966,8.652,9.167,8.03,9.362c-0.411,0.127-0.871,0.185-0.857,0.82
		c0.001,0.009-0.007,0.015-0.011,0.023C6.999,10.82,6.836,11.439,6.662,12.113z M16.442,6.647c-0.062,0.011-0.106,0.012-0.149,0.028
		c-0.751,0.244-1.5,0.495-2.251,0.734c-0.184,0.062-0.274,0.176-0.316,0.371c-0.12,0.544-0.244,1.089-0.374,1.63
		c-0.043,0.183-0.111,0.357-0.184,0.583c0.146-0.047,0.236-0.073,0.326-0.105c0.588-0.191,1.171-0.42,1.77-0.569
		c0.431-0.106,0.667-0.296,0.742-0.796C16.1,7.899,16.287,7.292,16.442,6.647z M13.992,16.906c0.884,0,1.7-0.01,2.517,0.001
		c0.213,0.004,0.336-0.088,0.448-0.268c0.312-0.495,0.639-0.978,0.959-1.469c0.082-0.131,0.151-0.268,0.26-0.445
		c-0.928,0-1.801-0.001-2.674,0.003c-0.051,0-0.113,0.06-0.145,0.106c-0.196,0.267-0.388,0.538-0.568,0.815
		C14.53,16.049,14.279,16.45,13.992,16.906z M7.144,16.906c0.907,0,1.78,0,2.653-0.01c0.051,0,0.121-0.046,0.152-0.094
		c0.447-0.682,0.889-1.363,1.352-2.077c-0.919,0-1.8-0.001-2.683,0.002c-0.058,0.001-0.135,0.056-0.17,0.112
		c-0.394,0.602-0.781,1.21-1.169,1.814C7.235,16.723,7.199,16.798,7.144,16.906z M20.885,16.89c0.096,0.002,0.17,0.017,0.246,0.017
		c0.674,0,1.35-0.021,2.022,0.005c0.335,0.007,0.617-0.021,0.742-0.415c0.008-0.026,0.033-0.043,0.041-0.064
		c0.376-0.554,0.743-1.111,1.133-1.707c-0.927,0-1.818-0.001-2.705,0.002c-0.051,0.001-0.12,0.056-0.147,0.108
		c-0.169,0.245-0.337,0.5-0.499,0.747C21.444,16.011,21.176,16.436,20.885,16.89z M5.045,15.624c0.693,0.023,1.333-0.592,1.33-1.287
		c-0.003-0.705-0.616-1.29-1.332-1.293c-0.722-0.001-1.301,0.57-1.313,1.281C3.716,15.046,4.299,15.624,5.045,15.624z"/>
</g>
</svg>
