<svg width="32" height="32" xml:space="preserve" xmlns="http://www.w3.org/2000/svg"><g style="fill:#4c6586;fill-opacity:1"><linearGradient id="a" gradientUnits="userSpaceOnUse" x1="2.421" y1="16.087" x2="28.403" y2="16.087"><stop offset="0" style="stop-color:#538132"/><stop offset=".02" style="stop-color:#538132"/><stop offset="1" style="stop-color:#74a029"/></linearGradient><path fill="url(#a)" d="M27.73 29.373H4.436c-.183-.14-.413-.248-.533-.44-.106-.166-.119-.424-.119-.641-.008-3.795-.007-7.592-.007-11.386 0-.071.017-.146-.003-.208-.03-.086-.069-.202-.136-.237-.571-.324-.923-.851-1.117-1.474-.246-.784-.031-1.646.559-2.27.13-.137.223-.264.127-.485a13.27 13.27 0 0 1-.386-1.077c-.219-.678-.031-1.071.604-1.289.534-.181 1.075-.353 1.612-.526 1.824-.592 3.647-1.181 5.473-1.776 1.242-.404 2.483-.815 3.723-1.219 1.642-.532 3.283-1.062 4.922-1.594.941-.305 1.889-.607 2.826-.915 1.055-.345 2.101-.69 3.149-1.036h.334c.314.103.562.299.678.631.262.748.506 1.504.759 2.257.082.244.175.482.27.746-6.656 2.166-13.29 4.327-19.911 6.479.104.289.242.536.283.801.043.289.162.326.397.326 6.703-.006 13.407-.003 20.107-.003h.349v.376c0 4.601-.002 9.205.007 13.803 0 .563-.132.982-.673 1.157zm-8.312-6.997c-1.598-.973-3.137-1.918-4.695-2.872v5.742c1.56-.952 3.095-1.892 4.695-2.87zm.298-14.514c.865-.28 1.689-.548 2.511-.818a.248.248 0 0 0 .135-.133c.075-.208.142-.414.191-.627.143-.583.274-1.172.411-1.759-.007 0-.034-.009-.054-.001-.827.271-1.653.544-2.477.821-.048.015-.112.075-.123.125-.199.777-.387 1.553-.594 2.392zM6.662 12.113c.866-.283 1.653-.546 2.446-.797.149-.048.226-.108.26-.277.09-.435.199-.871.31-1.301.081-.319.178-.629.281-.994-.687.222-1.307.423-1.929.618-.411.127-.871.185-.857.82.001.009-.007.015-.011.023-.163.615-.326 1.234-.5 1.908zm9.78-5.466c-.062.011-.106.012-.149.028-.751.244-1.5.495-2.251.734-.184.062-.274.176-.316.371a89.49 89.49 0 0 1-.374 1.63c-.043.183-.111.357-.184.583.146-.047.236-.073.326-.105.588-.191 1.171-.42 1.77-.569.431-.106.667-.296.742-.796.094-.624.281-1.231.436-1.876zm-2.45 10.259c.884 0 1.7-.01 2.517.001.213.004.336-.088.448-.268.312-.495.639-.978.959-1.469.082-.131.151-.268.26-.445-.928 0-1.801-.001-2.674.003-.051 0-.113.06-.145.106a17.46 17.46 0 0 0-.568.815c-.259.4-.51.801-.797 1.257zm-6.848 0c.907 0 1.78 0 2.653-.01.051 0 .121-.046.152-.094.447-.682.889-1.363 1.352-2.077-.919 0-1.8-.001-2.683.002-.058.001-.135.056-.17.112-.394.602-.781 1.21-1.169 1.814-.044.07-.08.145-.135.253zm13.741-.016c.096.002.17.017.246.017.674 0 1.35-.021 2.022.005.335.007.617-.021.742-.415.008-.026.033-.043.041-.064.376-.554.743-1.111 1.133-1.707-.927 0-1.818-.001-2.705.002-.051.001-.12.056-.147.108-.169.245-.337.5-.499.747-.274.428-.542.853-.833 1.307zm-15.84-1.266c.693.023 1.333-.592 1.33-1.287-.003-.705-.616-1.29-1.332-1.293a1.304 1.304 0 0 0-1.313 1.281c-.014.721.569 1.299 1.315 1.299z" style="fill:#4c6586;fill-opacity:1"/></g></svg>